<svg xmlns="http://www.w3.org/2000/svg" viewBox="-42.429993133544926 111.25 659.8599853515625 352.5"> <svg xmlns="http://www.w3.org/2000/svg" xmlns:xlink="http://www.w3.org/1999/xlink" version="1.1" id="Layer_1" x="172.50000381469727" y="181.25" viewBox="9.800000190734863 70.29999542236328 766.2000122070312 524.4000244140625" xml:space="preserve" height="157.40625" width="230" preserveAspectRatio="xMinYMin" enable-background="new 0 0 792 612" style="overflow: visible;"><path class="st0" d="M265.2,550.9l-43.8,43.8H133l88-88c34-34,34-89.2,0-123.1c-16.5-16.4-38.3-25.5-61.6-25.5s-45.2,9.1-61.6,25.5   c-16.5,16.4-25.5,38.3-25.5,61.6c0,23.3,9.1,45.1,25.5,61.6c6.2,6.2,13.3,11.4,21,15.5l-29.1,55.4c-13.3-7-25.4-16-36.1-26.7   C25.3,522.6,9.8,485,9.8,445.1c0-40,15.5-77.5,43.8-105.9c28.3-28.3,65.8-43.8,105.8-43.8c40,0,77.5,15.6,105.8,43.8   C323.5,397.5,323.5,492.5,265.2,550.9z" style="fill: #00AEEF;"></path><path class="st0" d="M740.8,388.8c-22.8-22.8-53.1-35.3-85.3-35.3c-32.2,0-62.5,12.5-85.3,35.3L364.4,594.6h89l161.3-161.4   c5.5-5.5,11.8-9.7,18.7-12.6c7-2.9,14.4-4.4,22-4.4c15.4,0,29.9,6,40.8,16.9c22.5,22.5,22.5,59.1,0,81.6   c-22.5,22.5-59.1,22.5-81.6,0c-3.3-3.3-6.2-7-8.5-11l-56,28.9c5.4,9.7,12.1,18.6,20,26.5c22.8,22.8,53,35.3,85.3,35.3   c32.2,0,62.5-12.5,85.3-35.3c0,0,0,0,0,0c22.8-22.7,35.3-53,35.3-85.3S763.6,411.5,740.8,388.8z" style="fill: #00AEEF;"></path><path class="st0" d="M562.5,121.7c-33.2-33.2-77.4-51.4-124.4-51.4c-47.1,0-91.2,18.3-124.4,51.4c-33.3,33.2-51.6,77.4-51.6,124.4   c0,47,18.3,91.2,51.6,124.4c11.2,11.3,23.7,20.8,37.2,28.5l30-56.9c-7.9-4.8-15.3-10.5-21.8-17c-21.1-21.1-32.7-49.2-32.7-79.1   c0-29.8,11.6-57.9,32.7-79c43.6-43.5,114.5-43.5,158.1,0c43.5,43.6,43.5,114.5,0,158.1L247.7,594.6h90.8l224-224   c33.2-33.2,51.4-77.4,51.4-124.4C614,199.1,595.7,154.9,562.5,121.7z" style="fill: #00AEEF;"></path></svg> <svg y="355.25" viewBox="-0.49000000953674316 14.739999771118164 519.8599853515625 38.5" x="27.570006866455074" height="38.5" width="519.8599853515625" xmlns="http://www.w3.org/2000/svg" style="overflow: visible;"><g fill="#ffffff" fill-opacity="1" style=""><path d="M33.33 53.24L29.92 44.99L12.04 44.99L8.63 53.24L-0.49 53.24L16.66 14.74L25.46 14.74L42.68 53.24L33.33 53.24ZM14.90 38.23L27.11 38.23L21.01 23.49L14.90 38.23ZM80.80 53.24L71.22 53.24L63.80 42.52L63.36 42.52L55.61 42.52L55.61 53.24L46.70 53.24L46.70 14.74L63.36 14.74Q68.47 14.74 72.24 16.45Q76.01 18.15 78.05 21.29Q80.08 24.42 80.08 28.71L80.08 28.71Q80.08 33 78.02 36.11Q75.96 39.22 72.16 40.87L72.16 40.87L80.80 53.24ZM71.06 28.71Q71.06 25.47 68.97 23.73Q66.88 22.00 62.87 22.00L62.87 22.00L55.61 22.00L55.61 35.42L62.87 35.42Q66.88 35.42 68.97 33.66Q71.06 31.90 71.06 28.71L71.06 28.71ZM121.22 53.24L111.65 53.24L104.23 42.52L103.79 42.52L96.03 42.52L96.03 53.24L87.12 53.24L87.12 14.74L103.79 14.74Q108.90 14.74 112.67 16.45Q116.44 18.15 118.47 21.29Q120.51 24.42 120.51 28.71L120.51 28.71Q120.51 33 118.44 36.11Q116.38 39.22 112.59 40.87L112.59 40.87L121.22 53.24ZM111.49 28.71Q111.49 25.47 109.40 23.73Q107.31 22.00 103.29 22.00L103.29 22.00L96.03 22.00L96.03 35.42L103.29 35.42Q107.31 35.42 109.40 33.66Q111.49 31.90 111.49 28.71L111.49 28.71ZM156.31 53.24L152.90 44.99L135.03 44.99L131.62 53.24L122.48 53.24L139.65 14.74L148.44 14.74L165.66 53.24L156.31 53.24ZM137.88 38.23L150.09 38.23L143.99 23.49L137.88 38.23ZM196.19 14.74L204.99 14.74L204.99 53.24L197.67 53.24L178.48 29.87L178.48 53.24L169.68 53.24L169.68 14.74L177.05 14.74L196.19 38.12L196.19 14.74ZM279.35 14.74L287.87 14.74L275.28 53.24L265.71 53.24L257.24 27.17L248.49 53.24L238.98 53.24L226.33 14.74L235.56 14.74L244.25 41.80L253.33 14.74L261.58 14.74L270.38 42.02L279.35 14.74ZM301.68 46.09L322.63 46.09L322.63 53.24L292.82 53.24L292.82 14.74L321.92 14.74L321.92 21.89L301.68 21.89L301.68 30.25L319.55 30.25L319.55 37.18L301.68 37.18L301.68 46.09ZM358.49 53.24L355.08 44.99L337.21 44.99L333.80 53.24L324.67 53.24L341.83 14.74L350.63 14.74L367.84 53.24L358.49 53.24ZM340.07 38.23L352.28 38.23L346.17 23.49L340.07 38.23ZM377.91 53.24L377.91 22.00L365.59 22.00L365.59 14.74L399.14 14.74L399.14 22.00L386.82 22.00L386.82 53.24L377.91 53.24ZM430.32 14.74L439.23 14.74L439.23 53.24L430.32 53.24L430.32 37.45L412.83 37.45L412.83 53.24L403.92 53.24L403.92 14.74L412.83 14.74L412.83 29.92L430.32 29.92L430.32 14.74ZM457.22 46.09L478.17 46.09L478.17 53.24L448.36 53.24L448.36 14.74L477.46 14.74L477.46 21.89L457.22 21.89L457.22 30.25L475.09 30.25L475.09 37.18L457.22 37.18L457.22 46.09ZM519.37 53.24L509.80 53.24L502.37 42.52L501.93 42.52L494.18 42.52L494.18 53.24L485.27 53.24L485.27 14.74L501.93 14.74Q507.05 14.74 510.81 16.45Q514.58 18.15 516.62 21.29Q518.65 24.42 518.65 28.71L518.65 28.71Q518.65 33 516.59 36.11Q514.53 39.22 510.73 40.87L510.73 40.87L519.37 53.24ZM509.63 28.71Q509.63 25.47 507.54 23.73Q505.45 22.00 501.44 22.00L501.44 22.00L494.18 22.00L494.18 35.42L501.44 35.42Q505.45 35.42 507.54 33.66Q509.63 31.90 509.63 28.71L509.63 28.71Z" transform="translate(0, 0)"></path></g></svg></svg>